<?xml version="1.0" encoding="utf-8"?>
<!-- Generator: Adobe Illustrator 21.1.0, SVG Export Plug-In . SVG Version: 6.00 Build 0)  -->
<svg version="1.1" id="图层_1" xmlns="http://www.w3.org/2000/svg" xmlns:xlink="http://www.w3.org/1999/xlink" x="0px" y="0px"
	 viewBox="0 0 374 99" style="enable-background:new 0 0 374 99;" xml:space="preserve">
<style type="text/css">
	.st0{fill:#23ADE5;}
</style>
<path class="st0" d="M194.2,52.5l-0.1-10.8c0-0.4,0-0.7,0-1c0.1-0.5,0.1-0.4-0.5-0.5c-1.4-0.2-2.7-0.2-4.2-0.2l0.3,12.4L194.2,52.5z
	"/>
<path class="st0" d="M76.5,51.1c1.1-0.1,1.1,0.7,0.6-3.2c-0.1-1-0.2-2.1-0.3-3c-0.2-1.9-0.4-4.4-0.6-6.1c-0.7-0.2-1.5-0.2-2.4-0.2
	c-1.5,0-1.1,0.1-2.4,0.2L72.8,50C73,51.8,72.2,51.4,76.5,51.1z"/>
<path class="st0" d="M64.4,70.1C64.2,70,64,70,63.9,69.9c-0.2-0.1-0.3-0.2-0.5-0.3c-0.6-0.3-1.4-0.6-2.1-0.9
	c-3.9-1.8-10.3-3.3-14.6-3.9c-2.8-0.4-5.9-0.6-8.8-0.4c-0.5,0-0.9,0.1-1.4,0.1c-0.4,0-1,0.2-1.3,0.2c0-1.2-0.7-7-0.8-9l-0.7-9
	c0-1.9-0.4-4.1-0.4-6.1c0-0.6-0.1-0.9-0.1-1.5l-0.1-3.1c0-0.6-0.1-1-0.1-1.5c0-1.1,0-2.2,0-3.2c0-1.2-0.1-2.1-0.1-3.1
	c0-2.1,0.1-4.2,0.1-6.4c0-2.1,0.2-4.2,0.2-6.3c-2.5-0.2-11.1,4.4-14.2,5.2c0,0.5,0.7,3.6,0.8,4.4c0.9,4.4,1.6,8.7,2.3,13.1
	c1.3,7.5,2.1,15.1,3.1,22.6c0.6,4.5,1,9.5,1.5,13.9c0.2,1.5,0.3,3.1,0.5,4.7c0.2,1.6,0.3,3.1,0.4,4.7c0.2,2.1,0.5,5,0.6,7.1
	c0,0.8,0.2,1.6,0.2,2.5l0.2,0.1c0,0,0,0,0.1,0h5.8c0.2-0.1,2.4-0.2,2.8-0.3c6.7-0.6,11.4-1.6,17.8-3.9c1.6-0.6,2.8-1.2,4.3-1.9
	c3.3-1.5,8.4-5.3,9.6-9c0.3-1,0.4-1.5,0.4-2.8C69.5,73.3,66.4,71.1,64.4,70.1z M53.9,78l-2,1.7c-0.9,0.7-8.2,6.1-8.6,6.2
	c-0.1-1-0.3-2.2-0.4-3.3l-0.9-6.6c-0.1-0.5-0.1-1.1-0.2-1.7c-0.1-0.5-0.2-1.1-0.2-1.7c0-0.2,0.1-0.1,0.3-0.1
	c1.3,0,11.6,4.1,12.7,4.7C54.4,77.7,54.2,77.8,53.9,78z"/>
<path class="st0" d="M67.5,50.6c0.1,0.4,0.2,1.3,0.3,1.5l0.1,0.2c0.5,0,0.1,0,0.3-0.1c0.6-0.1,1-0.2,1.6-0.4
	c0.5-0.1,1.3-0.2,1.7-0.4c0-1.8-1-11.1-1.5-12.1c-1.4-0.1-2.8,0.4-4.2,0.5c0,0.7,0.3,2.3,0.5,3.1L67.5,50.6z"/>
<path class="st0" d="M80.7,75.2c-0.3-2.8-2-19.4-2.7-20.1c-0.3-0.3-2.8-0.2-3.2-0.2c-1,0-5.7,0.8-6.4,1.2c0,0.7,0.5,3.2,0.7,4
	c0.3,1.4,0.5,2.6,0.8,4l3.2,16c0.2,0.9,1.5,7.3,1.5,8.1l7.4-0.8c0.1-0.3-0.7-7.2-0.8-8.2C81,78,80.8,76.5,80.7,75.2z"/>
<path class="st0" d="M160.5,39.3c0.2,0.9,0.3,2.1,0.4,3l1.1,9.1c0.6,0,1.6-0.1,2.1-0.2c0.7-0.1,1.6-0.1,2.3-0.1
	c0-1.5-0.8-7.9-1-10.3c0-0.3-0.1-1.1-0.1-1.4l0-0.7l-0.5,0c-1.3-0.2-2.6-0.2-3.8,0l-0.5,0c0,0.1-0.1,0.1,0,0.3
	C160.5,39.2,160.5,39.2,160.5,39.3z"/>
<path class="st0" d="M156.9,52.3c0.6,0.2,0.2,0,0.3,0c1-0.3,2.2-0.4,3.3-0.8c0-2.3-0.3-4.2-0.5-6.2c-0.1-1-0.7-5.4-0.9-5.8
	c-0.8,0-1.4,0.1-2.1,0.2l-2.2,0.3l2.1,12L156.9,52.3z"/>
<path class="st0" d="M105.1,52.5l0-11.9c0-0.6-0.1-0.4-0.6-0.5c-1.4-0.2-2.6-0.2-4.1-0.2l0.4,12.4L105.1,52.5z"/>
<path class="st0" d="M188,52.3c0.1-0.2,0,0,0.1-0.3c0-0.1,0-0.1,0.1-0.2c0.2-0.8,0.1-5.6,0.1-6.8c0-0.4-0.1-0.7-0.1-1.2l-0.1-3.3
	c0-0.6,0.2-0.5-1.6-0.5c-0.4,0-0.5,0.1-1,0.1c-0.4,0-0.7,0.1-1,0.1h-0.9c0,3,0.4,6.6,0.6,9.6c0.1,0.9,0,2,0.2,2.7L188,52.3z"/>
<path class="st0" d="M181.6,77.7c-0.1-1.2-0.3-2.6-0.4-3.8c-0.1-1.2-0.2-2.6-0.3-3.8l-1-11.4c-0.1-0.7-0.1-1.3-0.1-2l-1.4-17.1
	c0-0.7,0-1.3-0.1-2c0-0.5-0.2-1.4-0.2-1.9l-0.8-11.5c-1.1-0.6-2.6-0.3-3.5-0.2l-6.2,0.9c0.1,0.5,0.2,1.3,0.4,1.8
	c0.1,0.6,0.2,1.2,0.3,1.8c0.2,1.2,0.4,2.4,0.6,3.6c1.3,7.6,2.1,14.6,3.1,22.2l0.9,7.6c0.3,3.5,1,8.3,1.2,11.5
	c0.1,1.2,0.3,2.6,0.4,3.8c0.1,2.3,0.6,5.5,0.6,7.7l7.1,0.3c0-1.1-0.2-2.7-0.3-3.8C181.7,80.3,181.6,79,181.6,77.7z"/>
<path class="st0" d="M92.1,73.9c-0.4-3.8-0.6-7.6-1-11.4c-0.1-0.7-0.1-1.3-0.1-2c-0.2-1.7-0.3-4-0.5-5.6l-0.5-5.8
	c-0.2-2.9-0.6-6.7-0.7-9.5c0-1.2-0.2-2.6-0.3-3.9c-0.2-2.4-0.5-5.2-0.5-7.6c0-1.2-0.2-2.6-0.3-3.8c-1.7-0.5-3-0.2-4.9-0.1
	c-1.8,0.1-3.2,0.5-4.7,0.6c-0.1,0.4,0.5,3.1,0.6,3.7c1.5,8.8,2.6,17,3.7,25.9c0.3,2.5,0.5,5.1,0.9,7.6c0.2,1.3,0.3,2.6,0.4,3.8
	l0.4,3.8c0.3,2.5,0.5,5.2,0.8,7.7l0.5,5.8c0,0.6,0.2,1.4,0.2,1.9c0.7,0,1.1,0.1,1.8,0.1c1.6,0,3.6,0.2,5.3,0.3l-0.7-7.6
	C92.3,76.4,92.3,75.2,92.1,73.9z"/>
<path class="st0" d="M194.7,74.1l-0.1-8.8c0-1-0.1-1.9-0.1-2.9c0-2-0.1-3.7-0.2-5.7c-1.9-1.2-7.6-0.4-9.8-0.3
	c-0.1,0.7,0.2,3.3,0.3,4.3c0.1,1.3,0.3,2.7,0.4,4.1c0.2,2.6,0.5,5.3,0.7,8l0.8,8c0.2,1.3,0.2,2.7,0.4,4l0.3,4l0,0.5
	c0.2,0.1,0.1,0.1,0.3,0.1c0.6,0,0.2,0,0.3-0.1l6.7-0.1v-9C194.5,79.6,194.7,75.1,194.7,74.1z"/>
<path class="st0" d="M168.6,64.8c-0.2-1.5-1-9-1.6-9.6c-0.9-0.5-3.9-0.1-4.9,0c-0.8,0.1-1.5,0.2-2.3,0.4c-0.4,0.1-0.7,0.2-1.1,0.2
	c-0.3,0.1-0.8,0.1-1,0.2c-0.4,0.1-0.2-0.1-0.3,0.2c0,0.4,0,0,0.1,0.2c0.1,1.3,0.4,2.8,0.7,4l2.3,11.9c0.5,2.6,1.1,5.3,1.6,7.9
	c0.3,1.6,1.3,6.8,1.6,8c0.8-0.1,1.6-0.2,2.5-0.3l3.8-0.4c0.5-0.1,0.9,0.1,1-0.3l-1-10C169.7,74,169,68.1,168.6,64.8z"/>
<path class="st0" d="M96.3,52.5l2.6-0.2c0.3-0.5,0.3-5.2,0.2-6.1l-0.1-4.6c0-0.6-0.1-1-0.1-1.5c-1.6,0-2.8,0.2-4.3,0.2l0.7,9.7
	c0.1,0.4,0,0.9,0.1,1.4l0,1.2c0.2,0.1,0.2,0.1,0.4,0.1L96.3,52.5z"/>
<path class="st0" d="M105.7,72.6c0-0.7-0.1-1.2-0.1-2l-0.1-6.1c0-0.9,0-7.5-0.4-7.9c-1.1-1.1-8-0.3-9.6-0.2
	c-0.1,0.7,0.2,3.5,0.2,4.3c0.1,1.3,0.2,2.6,0.3,3.9c0.3,2.1,0.4,5.6,0.7,7.8c0.3,2.6,0.5,5.3,0.8,7.8l0.7,7.8l0.1,1.2
	c0.2,0,0.1,0.1,0.3,0.1c0.6,0,0.1,0,0.3-0.1l6.8-0.1c0.2-1.3-0.1-2.8-0.1-4L105.7,72.6z"/>
<path class="st0" d="M152.5,69.6c-1.3-0.7-2.9-1.4-4.3-1.9c-5.5-2-12.3-3.5-18.1-3.5c-1.1,0-2.1,0-3,0.1l-2.7,0.3
	c-0.6-3.8-0.7-8.1-1.2-11.9c-0.2-2-0.2-4-0.5-6l-0.2-3c-0.1-2.3-0.3-3.9-0.3-6.2c0-0.6-0.1-0.9-0.1-1.5c0-0.5,0-1.1,0-1.6
	c0-0.6-0.1-1-0.1-1.5l0-11.3c0.1-1,0-2.1,0.1-3.2l0.2-3.1c-1.4,0-2.9,0.6-3.9,1c-2.9,1.2-5.8,2.5-8.7,3.6c-0.3,0.1-0.6,0.2-0.9,0.3
	l-0.6,0.3c-0.2,0.1-0.1,0-0.2,0.1l0.9,4.3c1.4,7.4,2.6,14.8,3.7,22.2c0.4,3.1,0.9,6,1.2,9.1c0.4,3,0.8,6.2,1.1,9.2
	c0.3,3.7,1,8.1,1.3,11.8c0.1,0.8,0.1,1.5,0.2,2.4c0.2,1.5,0.4,3.1,0.4,4.7c0.1,2.1,0.5,4.9,0.6,7c0,0.5,0.1,0.8,0.1,1.2
	c0,0.5,0,0.6,0.3,0.9h5.8c0.1-0.1,2.5-0.2,2.8-0.3c5.8-0.5,12.6-1.7,17.8-3.9c4.7-1.9,12.2-5.7,13.9-10.9c0.6-1.9,0.7-3.5-0.4-5
	C156.6,71.8,154.4,70.6,152.5,69.6z M136.3,83.1l-3.8,2.7c-0.3,0-0.2-0.4-0.2-0.7l-0.7-4.9c-0.2-1.3-0.3-2.5-0.5-3.8l-0.5-3.9
	c1.1,0.1,2.5,0.7,3.4,1l9.6,3.7C143.1,78.4,137.6,82.1,136.3,83.1z"/>
<path class="st0" d="M229.7,11.1c-0.7,0.9-0.7,2.1,0,2.7c0.7,0.5,1.9,0.2,2.6-0.7c0,0,3.8-5,7.8-7.1c3.7-2,9.7-2.6,9.7-2.6
	c1.2-0.1,2.1-1,2-1.9c0-0.9-1-1.6-2.2-1.4c0,0-6.9,0.7-11.1,3C234.2,5.4,229.7,11.1,229.7,11.1z"/>
<path class="st0" d="M229.7,11.1c-0.7,0.9-0.7,2.1,0,2.7c0.7,0.5,1.9,0.2,2.6-0.7c0,0,3.8-5,7.8-7.1c3.7-2,9.7-2.6,9.7-2.6
	c1.2-0.1,2.1-1,2-1.9c0-0.9-1-1.6-2.2-1.4c0,0-6.9,0.7-11.1,3C234.2,5.4,229.7,11.1,229.7,11.1z"/>
<path class="st0" d="M235.7,15.5c-0.7,0.9-0.6,2.2,0.1,2.7c0.7,0.5,1.9,0.2,2.6-0.8c0,0,2.4-3.4,5.3-4.9c2.7-1.5,6.5-1.7,6.5-1.7
	c1.2-0.1,2.1-0.9,2-1.8c0-0.9-1-1.6-2.2-1.5c0,0-4.7,0.4-7.9,2.1C238.8,11.4,235.7,15.5,235.7,15.5z"/>
<path class="st0" d="M235.7,15.5c-0.7,0.9-0.6,2.2,0.1,2.7c0.7,0.5,1.9,0.2,2.6-0.8c0,0,2.4-3.4,5.3-4.9c2.7-1.5,6.5-1.7,6.5-1.7
	c1.2-0.1,2.1-0.9,2-1.8c0-0.9-1-1.6-2.2-1.5c0,0-4.7,0.4-7.9,2.1C238.8,11.4,235.7,15.5,235.7,15.5z"/>
<path class="st0" d="M241.8,19.9c-0.6,1-0.5,2.2,0.2,2.8c0.8,0.6,1.9,0.2,2.4-0.8c0,0,0.9-1.7,2.8-2.7c1.7-0.9,3.3-0.9,3.3-0.9
	c1.2,0,2.1-0.7,2-1.7c0-0.9-1-1.7-2.2-1.6c0,0-2.5,0.1-4.7,1.3C243.3,17.4,241.8,19.9,241.8,19.9z"/>
<path class="st0" d="M241.8,19.9c-0.6,1-0.5,2.2,0.2,2.8c0.8,0.6,1.9,0.2,2.4-0.8c0,0,0.9-1.7,2.8-2.7c1.7-0.9,3.3-0.9,3.3-0.9
	c1.2,0,2.1-0.7,2-1.7c0-0.9-1-1.7-2.2-1.6c0,0-2.5,0.1-4.7,1.3C243.3,17.4,241.8,19.9,241.8,19.9z"/>
<path class="st0" d="M336.2,11.1c0.7,0.9,0.7,2.1,0,2.7c-0.7,0.5-1.9,0.2-2.6-0.7c0,0-3.8-5-7.8-7.1c-3.7-2-9.7-2.6-9.7-2.6
	c-1.2-0.1-2.1-1-2-1.9c0-0.9,1-1.6,2.2-1.4c0,0,6.9,0.7,11.1,3C331.7,5.4,336.2,11.1,336.2,11.1z"/>
<path class="st0" d="M336.2,11.1c0.7,0.9,0.7,2.1,0,2.7c-0.7,0.5-1.9,0.2-2.6-0.7c0,0-3.8-5-7.8-7.1c-3.7-2-9.7-2.6-9.7-2.6
	c-1.2-0.1-2.1-1-2-1.9c0-0.9,1-1.6,2.2-1.4c0,0,6.9,0.7,11.1,3C331.7,5.4,336.2,11.1,336.2,11.1z"/>
<path class="st0" d="M330.2,15.5c0.7,0.9,0.6,2.2-0.1,2.7c-0.7,0.5-1.9,0.2-2.6-0.8c0,0-2.4-3.4-5.3-4.9c-2.7-1.5-6.5-1.7-6.5-1.7
	c-1.2-0.1-2.1-0.9-2-1.8c0-0.9,1-1.6,2.2-1.5c0,0,4.7,0.4,7.9,2.1C327.1,11.4,330.2,15.5,330.2,15.5z"/>
<path class="st0" d="M330.2,15.5c0.7,0.9,0.6,2.2-0.1,2.7c-0.7,0.5-1.9,0.2-2.6-0.8c0,0-2.4-3.4-5.3-4.9c-2.7-1.5-6.5-1.7-6.5-1.7
	c-1.2-0.1-2.1-0.9-2-1.8c0-0.9,1-1.6,2.2-1.5c0,0,4.7,0.4,7.9,2.1C327.1,11.4,330.2,15.5,330.2,15.5z"/>
<path class="st0" d="M324.1,19.9c0.6,1,0.5,2.2-0.2,2.8c-0.8,0.6-1.9,0.2-2.4-0.8c0,0-0.9-1.7-2.8-2.7c-1.7-0.9-3.3-0.9-3.3-0.9
	c-1.2,0-2.1-0.7-2-1.7c0-0.9,1-1.7,2.2-1.6c0,0,2.5,0.1,4.7,1.3C322.5,17.4,324.1,19.9,324.1,19.9z"/>
<path class="st0" d="M324.1,19.9c0.6,1,0.5,2.2-0.2,2.8c-0.8,0.6-1.9,0.2-2.4-0.8c0,0-0.9-1.7-2.8-2.7c-1.7-0.9-3.3-0.9-3.3-0.9
	c-1.2,0-2.1-0.7-2-1.7c0-0.9,1-1.7,2.2-1.6c0,0,2.5,0.1,4.7,1.3C322.5,17.4,324.1,19.9,324.1,19.9z"/>
<path class="st0" d="M229.7,11.1c-0.7,0.9-0.7,2.1,0,2.7c0.7,0.5,1.9,0.2,2.6-0.7c0,0,3.8-5,7.8-7.1c3.7-2,9.7-2.6,9.7-2.6
	c1.2-0.1,2.1-1,2-1.9c0-0.9-1-1.6-2.2-1.4c0,0-6.9,0.7-11.1,3C234.2,5.4,229.7,11.1,229.7,11.1z"/>
<path class="st0" d="M229.7,11.1c-0.7,0.9-0.7,2.1,0,2.7c0.7,0.5,1.9,0.2,2.6-0.7c0,0,3.8-5,7.8-7.1c3.7-2,9.7-2.6,9.7-2.6
	c1.2-0.1,2.1-1,2-1.9c0-0.9-1-1.6-2.2-1.4c0,0-6.9,0.7-11.1,3C234.2,5.4,229.7,11.1,229.7,11.1z"/>
<path class="st0" d="M235.7,15.5c-0.7,0.9-0.6,2.2,0.1,2.7c0.7,0.5,1.9,0.2,2.6-0.8c0,0,2.4-3.4,5.3-4.9c2.7-1.5,6.5-1.7,6.5-1.7
	c1.2-0.1,2.1-0.9,2-1.8c0-0.9-1-1.6-2.2-1.5c0,0-4.7,0.4-7.9,2.1C238.8,11.4,235.7,15.5,235.7,15.5z"/>
<path class="st0" d="M235.7,15.5c-0.7,0.9-0.6,2.2,0.1,2.7c0.7,0.5,1.9,0.2,2.6-0.8c0,0,2.4-3.4,5.3-4.9c2.7-1.5,6.5-1.7,6.5-1.7
	c1.2-0.1,2.1-0.9,2-1.8c0-0.9-1-1.6-2.2-1.5c0,0-4.7,0.4-7.9,2.1C238.8,11.4,235.7,15.5,235.7,15.5z"/>
<path class="st0" d="M241.8,19.9c-0.6,1-0.5,2.2,0.2,2.8c0.8,0.6,1.9,0.2,2.4-0.8c0,0,0.9-1.7,2.8-2.7c1.7-0.9,3.3-0.9,3.3-0.9
	c1.2,0,2.1-0.7,2-1.7c0-0.9-1-1.7-2.2-1.6c0,0-2.5,0.1-4.7,1.3C243.3,17.4,241.8,19.9,241.8,19.9z"/>
<path class="st0" d="M241.8,19.9c-0.6,1-0.5,2.2,0.2,2.8c0.8,0.6,1.9,0.2,2.4-0.8c0,0,0.9-1.7,2.8-2.7c1.7-0.9,3.3-0.9,3.3-0.9
	c1.2,0,2.1-0.7,2-1.7c0-0.9-1-1.7-2.2-1.6c0,0-2.5,0.1-4.7,1.3C243.3,17.4,241.8,19.9,241.8,19.9z"/>
<path class="st0" d="M336.2,11.1c0.7,0.9,0.7,2.1,0,2.7c-0.7,0.5-1.9,0.2-2.6-0.7c0,0-3.8-5-7.8-7.1c-3.7-2-9.7-2.6-9.7-2.6
	c-1.2-0.1-2.1-1-2-1.9c0-0.9,1-1.6,2.2-1.4c0,0,6.9,0.7,11.1,3C331.7,5.4,336.2,11.1,336.2,11.1z"/>
<path class="st0" d="M336.2,11.1c0.7,0.9,0.7,2.1,0,2.7c-0.7,0.5-1.9,0.2-2.6-0.7c0,0-3.8-5-7.8-7.1c-3.7-2-9.7-2.6-9.7-2.6
	c-1.2-0.1-2.1-1-2-1.9c0-0.9,1-1.6,2.2-1.4c0,0,6.9,0.7,11.1,3C331.7,5.4,336.2,11.1,336.2,11.1z"/>
<path class="st0" d="M330.2,15.5c0.7,0.9,0.6,2.2-0.1,2.7c-0.7,0.5-1.9,0.2-2.6-0.8c0,0-2.4-3.4-5.3-4.9c-2.7-1.5-6.5-1.7-6.5-1.7
	c-1.2-0.1-2.1-0.9-2-1.8c0-0.9,1-1.6,2.2-1.5c0,0,4.7,0.4,7.9,2.1C327.1,11.4,330.2,15.5,330.2,15.5z"/>
<path class="st0" d="M330.2,15.5c0.7,0.9,0.6,2.2-0.1,2.7c-0.7,0.5-1.9,0.2-2.6-0.8c0,0-2.4-3.4-5.3-4.9c-2.7-1.5-6.5-1.7-6.5-1.7
	c-1.2-0.1-2.1-0.9-2-1.8c0-0.9,1-1.6,2.2-1.5c0,0,4.7,0.4,7.9,2.1C327.1,11.4,330.2,15.5,330.2,15.5z"/>
<path class="st0" d="M324.1,19.9c0.6,1,0.5,2.2-0.2,2.8c-0.8,0.6-1.9,0.2-2.4-0.8c0,0-0.9-1.7-2.8-2.7c-1.7-0.9-3.3-0.9-3.3-0.9
	c-1.2,0-2.1-0.7-2-1.7c0-0.9,1-1.7,2.2-1.6c0,0,2.5,0.1,4.7,1.3C322.5,17.4,324.1,19.9,324.1,19.9z"/>
<path class="st0" d="M324.1,19.9c0.6,1,0.5,2.2-0.2,2.8c-0.8,0.6-1.9,0.2-2.4-0.8c0,0-0.9-1.7-2.8-2.7c-1.7-0.9-3.3-0.9-3.3-0.9
	c-1.2,0-2.1-0.7-2-1.7c0-0.9,1-1.7,2.2-1.6c0,0,2.5,0.1,4.7,1.3C322.5,17.4,324.1,19.9,324.1,19.9z"/>
<path class="st0" d="M245.5,76.4l-0.1,3.5c6.1,0,13.1,0,19.4,0l0.5-4.8c0,0-7.7,0.8-10.2,1C252.6,76.2,245.5,76.4,245.5,76.4z"/>
<path class="st0" d="M264.7,68.7c0,0-12.1,0.4-19.4,0.6v4.2c0,0,14.7-0.9,19.4-0.9L264.7,68.7z"/>
<path class="st0" d="M264.9,65.3l0.2-3.1l-19.9-1.3l-0.2,4.7C245,65.6,256,65.8,264.9,65.3z"/>
<path class="st0" d="M353,33.4c-0.5-1.1-2.2-3.4-3.1-4.2c-2.4-2-3.9-3.1-7.4-3.5l-117.5,0c-7.3,0-12,5.7-13.4,12.1
	c-0.1,0.3-0.4,2.3-0.4,2.3v39.4l0.1,0.8c0.2,1.7,0.9,3.9,1.6,5.4c1.3,2.6,3.1,4.9,5.6,6.4c1.9,1.1,3.8,1.8,6.1,1.8l4.2,0
	c0,1.5,0.6,2.5,1.3,3.4c0.3,0.4,0.9,0.7,1.3,1c0.7,0.4,0.9,0.4,1.5,0.5l0.3,0.1h1.1c0.2-0.1,1.2-0.2,1.8-0.6
	c1.6-0.8,2.7-2.4,2.7-4.5l88.5,0c0,2.3,1.5,4.1,3.5,4.8l0.9,0.2c0,0,0.1,0,0.1,0c0,0,0.1,0,0.1,0h1.1l0.3-0.1
	c2.5-0.6,4.2-2.3,4.2-4.9c1.6-0.3,4.4,0.3,6.9-0.4c1-0.3,1.7-0.6,2.6-1c0.6-0.3,1.6-1,2.1-1.5c1.4-1.3,2.2-2.2,3.3-4
	c2.4-4,2.5-7.5,2.5-12.1V46C355,40.9,355.3,38,353,33.4z M307.1,37.8c18.2-1.3,24.1-2.9,24.1-2.9c0.1,2.2,0.7,6.7,0.7,6.7
	c-10.1-0.6-25.9,0.7-25.9,0.7L307.1,37.8z M332.6,43c0,0-2.6,5.2-3,5.6l-4.8,0.3c0,0,0.8-2.2,1.4-5.9C326.2,43,331.5,42.5,332.6,43z
	 M315,49.3c-2,0.2-5.2,0.4-5.2,0.4c-1.1-2.9-2.5-6.3-2.5-6.3c4.3-0.5,6.2,0,6.2,0C313.7,44.4,315,49.3,315,49.3z M279.1,85.4
	c0,0-11.5-0.1-48.3,0.4l-1.4-5.9c0,0,3.9,0,9.5,0c-0.1-5.2-0.5-19.9-1.8-25.9c0,0-0.4-3.1,2-3.5c1.1-0.2,5.8-0.5,11.4-0.6l0.3-1.7
	c0.1-1,0.3-1.8,0.4-2.7l-6.6,0.2c-0.8,0.1-1.7,0.1-2.5,0.1c-0.8,0-1.7,0.1-2.5,0.1c-0.8,0-1.7,0-2.5,0.1c-0.7,0.1-1.8,0.1-2.5,0.1
	l0.5-4.6c1.5,0.1,3.5-0.1,5.1-0.1c0.8,0,1.7-0.1,2.5-0.1c2.1,0,5.3-0.3,7.6-0.3l1.5-0.1l0.4-4.9c0-0.6,0.1-1.2,0.1-1.8l0.1-1.7
	c0.8,0.1,1.6,0.5,2.1,0.8c1.6,0.8,3.2,1.7,4.7,2.5c0.2,0.1,0.3,0.2,0.5,0.2l0.3,0.2c0.1,0.1,0,0,0.1,0.1l-0.7,2.4
	c-0.2,0.6-0.4,1.2-0.5,1.9c3.7-0.2,7.2-0.5,11-0.9c0.8-0.1,1.6-0.2,2.4-0.3c0.4,0,0.8-0.1,1.2-0.1c0.4-0.1,0.9-0.1,1.2-0.2l0.3,4.1
	c0,0.6,0.1,1.5-0.3,2.3l-7.5,0.1c-0.4,0-0.9,0-1.3,0c-0.4,0-0.9,0-1.3,0l-7.1,0.1c-0.4,1.5-0.8,3-1.1,4.5c5.1,0,10.1,0.3,13,1
	c0,0,4.1-0.3,3.6,4.4c0,0-1.2,18.5-2.2,24.7c4.5,0,7.9,0,9.4,0C280,79.9,278.9,84.8,279.1,85.4z M303.8,60.2l0.2,6.2l-4,1.8
	c0,0.7,0,1.4,0,2c0,0.5,0,0.9,0,1.4c0,0.9-0.1,1.8,0,2.7c0,1.2-0.1,2.8,0,4.1c0,0.3,0,0.5,0,0.7c0,0.1,0,1,0,2.1l0,0l0,0.5
	c0,1.3,0,2.6-0.1,2.7l0,0l0,0.8c-0.3,0.7-0.5,0.7-1.6,0.8c-1.1,0.1-9.8-3.8-9.8-3.8c0.2-0.6,0-1.4-0.1-1.7c-0.3-0.9,0.4-0.6,0.4-0.6
	c1.9,0.1,2.8,0.4,5.6,0.6c0.1-3.5,0.2-6.1,0.2-9.8l-7,3.1l-0.9-6.4c3.8-1.4,5.8-2.1,7.8-3c0-1-0.1-2.1-0.1-3.3
	c0-1.2-0.4-7.2-0.4-8.4l0-0.8c-1.7,0.1-3.7,0.3-6.8,0.6l-1-6.6c2.9-0.1,4-0.2,7.5,0.2c0-0.2,0-0.4-0.1-0.7c0-0.4,0-0.6,0-0.9
	l-0.6-6.6c-0.1-0.6-0.1-1.2-0.2-1.8l-0.3-1.8c0.8-0.1,1.7,0.2,2.3,0.4c1.8,0.5,4.3,1.2,6.1,1.7c0.2,0.1,0.3,0.1,0.5,0.2l0.4,0.1
	c0.1,0,0,0,0.1,0.1l-0.3,2.5c-0.3,2.6-0.5,5.2-0.7,7.7c1,0.1,2,0.3,3.2,0.5l-0.1,4c-1.3,0-2.4-0.1-3.3-0.1c0,0.3,0,0.6-0.1,0.9
	c-0.1,1.8-0.2,3.5-0.3,5.4c0,1.3-0.1,2.7-0.2,4C301.2,61.4,302.4,60.9,303.8,60.2z M332.9,84.2c-0.6,1.5-1.3,1.4-1.3,1.4
	c-1,0-3.9,0.2-7.4,0.4c-6.4,0.3-14.6,0.7-15.6,0.7c-1.5,0-2.5-2.2-2.5-2.2c-0.4-5.8-0.8-14.5-1.1-16.5c-0.3-2.1,1.5-2.9,1.5-2.9
	c0.6-0.3,5,0,7.5,0c6.6,0,14.9,0.1,17.3,0.4c2.1,0.3,2.6,0.7,2.9,3.2C334.6,70.9,333.5,82.7,332.9,84.2z M305.5,63
	c0,0,3.6-4.9,4.9-7.2c0,0,2.6-0.1,5.1-0.3c0,0-2.8,6.8-4.1,7.9C311.5,63.4,308.2,63.5,305.5,63z M324.7,55.7c0,0,2.9-0.4,5.1-0.2
	c0,0,4.4,4.7,4.4,7c0,0-1.4,0.6-6.7,0.2C327.6,62.6,325.9,57.7,324.7,55.7z M335.1,54.1c-0.3,0-0.6,0-0.9,0c-0.3,0-0.6,0-0.9,0
	c-0.6,0-1.2,0-1.8-0.1c-2.8-0.1-5.4-0.1-8.1,0c0.2,4.1,0.3,8.1-0.1,9.6l-7,0.3c0,0,0.6-4.5,1-9.7l-0.6,0c-1.7,0.1-4.1,0.1-5.7,0.2
	c-0.6,0-1.3,0-1.9,0.1c-1.1,0.1-2.7,0.1-3.8,0.2l-0.6-3.2c0.5-0.1,1.3-0.1,1.9-0.1c0.6,0,1.2-0.1,1.9-0.1c0.6,0,1.3,0,1.9-0.1
	c0.6,0,1.3-0.1,1.9-0.1l5.3-0.3c0.1-3,0.2-5.9-0.1-8.2l5.1-0.2c0,0,0.3,3.7,0.6,8.1l4-0.2c0.3,0,0.6-0.1,1-0.1c0.2,0,0.7,0,0.9,0
	l5.6-0.4c0.4,0.5,0.3,1.2,0.4,1.6L335.1,54.1z"/>
<path class="st0" d="M313.7,68.6l0.5,4.2c0.2,1.4,0.4,2.7,0.6,4.1l0.7,5.2c0,0.3,0,0.7,0.2,0.7l4.1-2.9c1.4-1,7.2-5,7.8-6.1l-10.3-4
	C316.4,69.4,314.9,68.8,313.7,68.6z"/>
<path class="st0" d="M245.3,54.9v3c0,0,15.1,0.9,19.8,0.9l0.3-4C265.4,54.8,251.8,54,245.3,54.9z"/>
</svg>
