<?xml version="1.0" encoding="utf-8"?>
<!-- Generator: Adobe Illustrator 19.0.0, SVG Export Plug-In . SVG Version: 6.00 Build 0)  -->
<svg version="1.1" id="图层_1" xmlns="http://www.w3.org/2000/svg" xmlns:xlink="http://www.w3.org/1999/xlink" x="0px" y="0px"
	 viewBox="350 -102.4 1239.9 705.4" style="enable-background:new 350 -102.4 1239.9 705.4;" xml:space="preserve">
<style type="text/css">
	.st0{fill:#FFFFFF;fill-rule: evenodd;}
</style>
<path id="logo" class="st0" d="M1208.4,207.4c-67.5,5.6-151.9,27.3-196,46c-38,16.1-54.2,36.4-46.3,61.5c7.8,24.9,38,36,64.7,36.5
	c25.3,0.5,57.7,2.1,74.4,14.6c12.3,9.2,15.2,26.8,1,56.4c-14.7,30.6-42.8,63.7-80.5,89.9c-44,30.5-92.7,61.3-182.1,90.8
	c55-0.8,150.2-18.3,212.6-44.4c65.6-27.4,122.8-66.8,149.3-122.1c20.1-42,12.1-77.6-8.8-98.4c-24.4-24.3-81.2-28.1-121.7-23.8
	c-26.2,2.8-57.7-1.2-62.3-10.3c-9.5-18.9,13.4-33.3,40-46.3C1079,244.8,1141.7,223.4,1208.4,207.4z M457.2,20.4L658.1,4.9
	c0,0,32.9,7.5,41,32.9s1,63.7-32.4,92.9c-35.5,31.1-67.8,46.4-89,53.7c25.5-2.6,51.3-1.3,76.4,3.7c52.7,10.9,71.7,58.2,64.3,95.5
	c-13.3,67-65.9,122.1-137.8,171c-89.6,61-178.4,104.1-230.6,127.8c58.2-41.8,152.8-137.4,215.1-222.8
	c102.1-139.9,10-160.2-13.2-168.7c7.2-8.2,47.2-47.8,60.7-88.4s2.2-70.2-37.3-78.3c-26,59-62.2,132.2-97.4,199.5
	c-37.3,71.2-73.4,132.8-73.4,132.8L457.2,20.4z M707.1,168.7l70.6-10.3c-1,16.5-3.1,33-6.4,49.2c-9.7,49.1-32.2,99-48.8,116.4
	c15.2-34.8,12.6-58.8,9.1-77.2c-3.3-17.4-17.7-35.7-26.1-43.7C707.9,191.8,708.4,180.2,707.1,168.7L707.1,168.7z M815.1-6.2
	C829-7.7,909.9-14,909.9-14S909.5,5.5,890,81.9c-11.1,43.6-31.3,98.8-49.4,134c-18.7,36.3-51.3,79.8-73.6,98
	c11.4-39.9,16.7-62.1,25.9-113c6-32.8,12.9-84.6,16.3-125.1C812.7,33.3,814.8,5,815.1-6.2z M886.1,139.1c6.5-0.7,57.9-8.6,57.9-8.6
	s0.1,11.2-10,46.2c-5.9,20.2-18.2,47.5-27.8,63.6c-12.4,20.8-27.9,38.1-42.6,48.4c5.3-18.7,7.8-29,12.1-52.8
	c2.8-15.3,6-39.5,7.6-58.5C885,157.6,886,144.3,886.1,139.1z M1086.2,104.9c4.8-0.5,42.9-6.3,42.9-6.3s-0.2,8.2-7.4,34.2
	c-4.7,17-11.9,33.6-20.5,47.1c-9.6,15.1-21.3,29.2-31.6,35.8c3.8-12.8,6.8-25.9,9-39.1c2.1-11.4,4.5-29.3,5.6-43.3
	C1085.4,118.5,1086.1,108.7,1086.2,104.9z M1204.4,85.2c4.3-0.4,38.1-5.6,38.1-5.6s0.3,7.5-6.6,30.4c-4.9,16.2-11.9,31.7-18.2,42.2
	c-7,11.5-18.5,24.8-28.2,31.6c3.3-11.4,6-23,8-34.8c1.8-10.1,4-26,5-38.5C1203.7,97.3,1204.3,88.6,1204.4,85.2L1204.4,85.2z
	 M1377.2,77.2c3.3-0.3,32.4-5.6,32.4-5.6s0.1,5.6-5,23.1c-2.9,10.1-9.4,23.3-14.4,31.9c-6.1,10.4-15.9,19.1-24.2,24.2
	c2.5-8.7,4.6-17.5,6.1-26.4c1.4-7.7,3-19.8,3.8-29.2C1376.6,85,1377.1,79.8,1377.2,77.2L1377.2,77.2z M1156-32.3
	c10.1-1.1,69.1-5.6,69.1-5.6s-0.3,14.2-14.5,69.9c-8.1,31.8-22.8,72-36,97.7c-13.6,26.5-37.4,58.2-53.7,71.4
	c8.3-29.1,12.2-45.2,18.9-82.4c4.3-23.9,9.4-61.6,11.9-91.1C1154.3-3.6,1155.9-24.2,1156-32.3z M1306.3-99.5
	c18-0.7,92.7-2.9,92.7-2.9s-3.3,21.7-24.8,99.5c-12.5,45-43,144.9-61.8,181.5c19.9-7.5,133.8-35.6,169.3-42
	c-120.5,51.6-216.8,100.9-234,106c10.8-35.6,18-63.2,28.3-115.8c8-41,15.2-82.5,20.6-124.3S1304.8-72.1,1306.3-99.5z M1425.7,69.3
	c4.1-0.4,26.6-4.2,26.6-4.2c0.1,6.3-0.2,12.7-0.8,19c5.4-9.4,8.1-14.2,12.2-21.4c6.4-1,13.6-2.1,19.9-3c-7.4,16.3-16.6,31.8-27.6,46
	c-8.6,11.3-17.3,21.9-26.7,25.9c0.2-6.2,0-9-0.3-18.7c-0.2-7-0.5-11.7-1.5-23C1426.6,81,1426.5,76.7,1425.7,69.3L1425.7,69.3z
	 M1508.4,85.3c3.7,0.4,12.5-2.2,18.7-9.3c5.8-6.7,8.7-15.8,2.8-21c-4-3.6-17.2-4.5-28.2,4.3c-11.5,9.2-15.8,19.9-16,29.8
	c-0.3,10.8,3.2,16.2,8.3,18.4c6.4,2.8,15.3,1.7,24.7-2.6c6.5-3,13-10,17.8-16.5c4-5.9,7.2-12.2,9.6-18.9
	c-3.8,5.1-7.8,10.9-12.5,14.9c-4.8,4.1-10.4,7.2-16.4,9.1C1509.1,95.8,1508,87.5,1508.4,85.3L1508.4,85.3z M1508.6,81.3
	c0,0,1.2-10.4,4.8-12.3c2.7-1.4,4.2-0.8,4.2,1.4C1517.6,74.7,1512.4,79.3,1508.6,81.3L1508.6,81.3z M1258,258.8
	c14.6-3.9,78.9-25.3,78.9-25.3c0,0,0.5,5.6,0.4,14.7c6.1-2.6,23-8,42.6-11.8c-13.1,6.4-32.8,17.8-42.9,25.1
	c-0.8,10.2-2.1,20.4-3.9,30.4c-6.4,33.3-11.8,50-24.4,77.7c-14.8,32.5-39.9,65-63.3,81c7.4-20.1,12.2-51.1,14.9-78.8
	c1.9-17.7,2.6-35.4,2.3-53.2c-6.3,5.5-24.8,22.3-40.5,41.5c-6.6-24.4-24.5-37.3-37.6-41.2c21.6-14.3,57-31.5,76.1-40.1
	C1259.9,271.4,1259.1,265,1258,258.8L1258,258.8z M1484.8,215.2c7.5-2.3,43-15.1,43-15.1s0.5,8.5-2.2,23
	c16.1-8.8,46.6-35.1,45.8-54.8c13.3,11.1,18.5,41,18.5,48.7c-6.2,6.2-48.9,23.6-70.1,28.8c-3.6,10.8-7.6,18.6-13.5,28.4
	c-10.2,17.1-21,29.3-34,38.3c4.1-11.2,7.1-24.4,9.3-39.8c2-12.4,3.1-25,3.5-37.6C1485.5,223.9,1485.3,222.1,1484.8,215.2
	L1484.8,215.2z M1414.1,237.3c8.5-2.5,49-17.2,49-17.2c0-0.1,4.4,17.9-0.5,45.5c-3.8,21.3-6.8,30.3-15.1,46
	c-10.4,19.4-25.6,34.9-38.1,43.6c4-11.8,5.5-22.9,6.7-38.9c-10.9,6.8-33.7,12.1-52.1,5.1c-17.3-6.6-17.2-23.3-5.4-40.6
	c12.7-18.7,31.6-29.1,56.6-35.5C1414.8,242.9,1414.5,240.3,1414.1,237.3z M992.1-20.5c11-1.2,75-6.7,75-6.7s3.2,10.8-14.9,70.6
	c-8.4,27.6-21.8,56.5-34.5,80.5c7.6-4.9,22-10.3,34.5-10.1c20.3,0.3,20.9,16.7,14,41.4c-6.5,23.4-22.3,41.8-47.5,64.9
	c-21.2,19.5-43.9,32-67.2,41.2c33.5-23.9,48.3-44.8,58.9-67.3c6.8-14.4,6.1-30.4-3.5-31.4c-5.6-0.5-13.6,1.5-22.9,11.6
	c-15.3,16.6-31.7,32.1-49,46.5c13.9-34.3,20.1-52.8,31.3-92.3c8.5-28.9,15.1-58.3,19.8-88.1C991.1,9.3,991.9-11.7,992.1-20.5z
	 M1416.8,259.7c0.4,9.9,1,39.5-0.7,53.1c-8.6,0.9-16.7,0.5-21-9.1C1389.1,290.3,1401.2,269.1,1416.8,259.7z"/>
</svg>
